<svg width="250" height="65" viewBox="0 0 250 65" fill="none" xmlns="http://www.w3.org/2000/svg">
<rect x="0.5" y="0.5" width="249" height="64" stroke="black"/>
<path d="M44.7653 39.3481C44.8373 39.4921 44.9333 40.0441 45.0534 41.0041C45.1974 41.9641 45.2694 42.7801 45.2695 43.4521C45.2695 44.1001 45.2335 44.6161 45.1615 45.0001L28.0615 45.0008L27.9535 43.7409C29.0814 43.3328 30.1014 43.0568 31.0134 42.9127C30.869 33.4567 30.7487 26.4847 30.6525 21.9967C30.0285 21.9008 28.9725 21.6128 27.4845 21.1329L27.6645 19.8009L36.3405 19.8005C36.7485 20.4725 36.9525 21.1805 36.9525 21.9245C35.6565 21.9725 34.7205 22.0086 34.1445 22.0326C34.0967 26.6406 34.0489 30.8406 34.0011 34.6326C33.9772 38.4006 33.9534 41.0526 33.9294 42.5886L41.8134 42.5883L42.6773 39.1682C43.8773 39.1682 44.5733 39.2282 44.7653 39.3481Z" fill="black"/>
<path d="M54.6901 20.5565C55.1221 20.4125 56.2981 20.2565 58.2181 20.0884C60.1381 19.8963 61.8781 19.8003 63.4381 19.8002C65.0221 19.8002 66.2461 19.8721 67.1101 20.0161C67.1341 20.1121 67.1461 20.2321 67.1461 20.3761C67.1461 20.4961 67.0741 20.7961 66.9301 21.2761C66.8101 21.7561 66.7141 22.0681 66.6421 22.2121C66.4501 22.4041 65.9101 22.5481 65.0221 22.6442L71.8987 42.5519L75.3187 42.8398C75.3187 43.5118 75.1147 44.2318 74.7067 44.9998L66.4267 45.0001L66.3187 43.7401C66.8707 43.4521 67.6747 43.2001 68.7307 42.984L66.8945 37.8361L56.8505 37.8365L55.1587 42.5525L58.0747 42.8404C58.0747 43.5124 57.8707 44.2324 57.4627 45.0004L49.1827 45.0007L49.0747 43.7407C50.0107 43.4047 51.0067 43.1407 52.0627 42.9486L59.0461 22.5364C56.9101 22.2964 55.4101 22.0085 54.5461 21.6725L54.6901 20.5565ZM64.0503 29.8082L62.1421 22.7523C61.9981 22.7283 61.7941 22.7163 61.5301 22.7163L59.5863 30.0604L57.4985 35.5324L66.2465 35.5321L64.0503 29.8082Z" fill="black"/>
<path d="M88.5171 45.4685C81.4611 45.4686 77.933 41.0407 77.9329 32.1847C77.9328 27.9847 78.7848 24.7927 80.4887 22.6087C82.2167 20.4246 84.9647 19.3326 88.7327 19.3325C91.7567 19.3324 94.4447 20.1724 96.7967 21.8523C96.7967 23.1963 96.6288 24.9003 96.2928 26.9643C95.9568 27.0363 95.2608 27.0724 94.2048 27.0724L93.1247 22.6084C91.4207 22.2964 90.0527 22.1405 89.0207 22.1405C87.1247 22.1405 85.4567 22.4046 84.0167 22.9326L83.3327 23.1846C83.1887 23.4246 83.0087 23.7846 82.7928 24.2646C82.5768 24.7206 82.2888 25.6926 81.9288 27.1806C81.5928 28.6686 81.4248 30.1926 81.4249 31.7526C81.4249 35.1366 81.977 37.8246 83.081 39.8166C84.209 41.8086 85.997 42.8045 88.445 42.8045C90.197 42.8045 91.517 42.6244 92.405 42.2644C92.645 42.1444 92.993 41.9644 93.449 41.7244L94.205 37.4044L96.293 37.5123C96.653 39.9843 96.833 41.9883 96.833 43.5243C96.3291 43.9083 95.2371 44.3284 93.5571 44.7844C91.9011 45.2404 90.2211 45.4685 88.5171 45.4685Z" fill="black"/>
<path d="M108.954 22.2847L108.774 30.9607L114.462 30.9606L114.75 28.3686C115.422 28.3686 116.142 28.5726 116.91 28.9806L116.91 35.8206L115.65 35.9286C115.29 34.8966 115.05 34.0326 114.93 33.3366L108.774 33.3367C108.726 35.4247 108.678 38.5087 108.631 42.5887L116.875 42.5886L117.738 39.2046L119.826 39.3486C120.163 40.7166 120.331 41.9286 120.331 42.9846C120.331 44.0166 120.307 44.6886 120.259 45.0006L102.763 45.0007L102.655 43.7407C103.711 43.3567 104.731 43.0807 105.715 42.9127C105.57 33.5527 105.45 26.5927 105.354 22.0327C104.826 21.9847 103.77 21.6967 102.186 21.1687L102.366 19.8007L119.718 19.8006C119.766 20.1126 119.79 20.5926 119.79 21.2406C119.79 22.5606 119.622 23.9886 119.286 25.5246C118.758 25.6446 118.062 25.7046 117.198 25.7046L116.334 22.2846L108.954 22.2847Z" fill="black"/>
<path d="M144.764 39.3488C144.836 39.4928 144.932 40.0448 145.052 41.0048C145.196 41.9648 145.268 42.7808 145.268 43.4528C145.268 44.1008 145.232 44.6168 145.16 45.0008L128.06 45.0007L127.952 43.7407C129.08 43.3328 130.1 43.0568 131.012 42.9128C130.868 33.4568 130.748 26.4848 130.652 21.9968C130.028 21.9008 128.972 21.6128 127.484 21.1327L127.664 19.8007L136.34 19.8008C136.748 20.4728 136.952 21.1808 136.952 21.9248C135.656 21.9728 134.72 22.0088 134.144 22.0328C134.096 26.6408 134.048 30.8408 134 34.6328C133.976 38.4008 133.952 41.0528 133.928 42.5888L141.812 42.5888L142.676 39.1688C143.876 39.1688 144.572 39.2288 144.764 39.3488Z" fill="black"/>
<path d="M162.862 45.433C161.494 45.433 160.306 45.325 159.298 45.1089C158.29 44.8929 157.318 44.4969 156.382 43.9209C154.438 42.7688 153.43 40.4768 153.358 37.0448C153.31 33.6128 153.19 28.5728 152.998 21.9248C152.038 21.7328 150.958 21.4448 149.758 21.0607L149.866 19.8008L158.902 19.8009C159.31 20.5689 159.514 21.2889 159.514 21.9609C158.818 22.0089 157.822 22.0569 156.526 22.1049C156.478 24.8889 156.454 29.0649 156.454 34.6329C156.454 37.6329 157.006 39.7209 158.11 40.8969C159.238 42.0729 160.834 42.661 162.898 42.661C163.786 42.661 164.554 42.565 165.202 42.3731C165.874 42.1811 166.534 41.8091 167.182 41.2571C168.478 40.1531 169.126 37.9211 169.126 34.5611C169.126 34.5371 169.018 30.3851 168.802 22.1051C166.93 21.5531 165.85 21.2051 165.562 21.0611L165.67 19.8011L174.598 19.8012C174.982 20.7853 175.174 21.4933 175.174 21.9253C173.662 21.9252 172.69 21.9372 172.258 21.9612C172.21 23.8812 172.15 26.6052 172.078 30.1332C172.03 33.6372 171.994 35.9412 171.97 37.0452C171.898 39.7812 171.058 41.8692 169.45 43.3091C167.842 44.7251 165.646 45.4331 162.862 45.433Z" fill="black"/>
<path d="M200.345 21.9255L192.929 32.0053L200.705 42.6255L203.765 42.8416C203.765 43.5136 203.561 44.2336 203.153 45.0016L193.721 45.0013L193.613 43.7413C194.693 43.3573 195.761 43.0694 196.817 42.8774L190.949 34.2372L185.369 42.625L188.429 42.8411C188.429 43.5131 188.225 44.2331 187.817 45.0011L178.565 45.0007L178.457 43.7407C179.561 43.3568 180.641 43.0688 181.697 42.8769L189.293 32.0051L182.201 22.2129L179.141 21.9968C179.141 21.3248 179.345 20.6048 179.753 19.8368L189.437 19.8371L189.545 21.0971C188.321 21.5531 187.181 21.8771 186.125 22.069L191.453 29.9172L196.673 22.1774L193.613 21.9613C193.613 21.2893 193.817 20.5693 194.225 19.8013L203.477 19.8016L203.585 21.0616C202.481 21.4456 201.401 21.7336 200.345 21.9255Z" fill="black"/>
<path d="M213.379 22.2851L213.198 30.9611L218.886 30.9614L219.174 28.3694C219.846 28.3694 220.566 28.5735 221.334 28.9815L221.334 35.8215L220.074 35.9295C219.714 34.8974 219.474 34.0334 219.354 33.3374L213.198 33.3371C213.15 35.4251 213.102 38.5091 213.054 42.5891L221.298 42.5895L222.162 39.2056L224.25 39.3497C224.586 40.7177 224.754 41.9297 224.754 42.9857C224.754 44.0177 224.73 44.6897 224.682 45.0017L207.186 45.0008L207.078 43.7408C208.134 43.3569 209.154 43.0809 210.138 42.913C209.994 33.553 209.874 26.5929 209.779 22.0329C209.251 21.9849 208.195 21.6969 206.611 21.1688L206.791 19.8008L224.143 19.8017C224.191 20.1137 224.215 20.5937 224.215 21.2417C224.215 22.5617 224.047 23.9897 223.711 25.5256C223.183 25.6456 222.487 25.7056 221.623 25.7055L220.759 22.2855L213.379 22.2851Z" fill="black"/>
</svg>
